<?xml version="1.0" ?>
<mxfile host="app.diagrams.net" modified="2025-09-01T15:33:37.324920" agent="Archetype Generator" version="1.0">
  <diagram name="Three Tier Architecture" id="67c701b5-77ea-45fd-ab40-61ead7e15aa1">
    <mxGraphModel dx="1422" dy="794" grid="1" gridSize="10">
      <root>
        <mxCell id="0"/>
        <mxCell id="1" parent="0"/>
        <mxCell id="2" value="Load Balancer" style="ellipse;whiteSpace=wrap;html=1;fillColor=#f8cecc;strokeColor=#b85450;" vertex="1" parent="1">
          <mxGeometry x="50" y="200" width="120" height="60" as="geometry"/>
        </mxCell>
        <mxCell id="3" value="Web Server" style="rounded=1;whiteSpace=wrap;html=1;fillColor=#d5e8d4;strokeColor=#82b366;" vertex="1" parent="1">
          <mxGeometry x="250" y="200" width="120" height="80" as="geometry"/>
        </mxCell>
        <mxCell id="4" value="HighQualityTest" style="rounded=1;whiteSpace=wrap;html=1;fillColor=#d5e8d4;strokeColor=#82b366;" vertex="1" parent="1">
          <mxGeometry x="450" y="200" width="120" height="80" as="geometry"/>
        </mxCell>
        <mxCell id="5" value="Database" style="shape=cylinder3;whiteSpace=wrap;html=1;boundedLbl=1;backgroundOutline=1;size=15;fillColor=#e1d5e7;strokeColor=#9673a6;" vertex="1" parent="1">
          <mxGeometry x="650" y="180" width="100" height="120" as="geometry"/>
        </mxCell>
        <mxCell id="6" value="HTTP" style="edgeStyle=orthogonalEdgeStyle;rounded=0;orthogonalLoop=1;jettySize=auto;html=1;" edge="1" parent="1" source="2" target="3">
          <mxGeometry relative="1" as="geometry"/>
        </mxCell>
        <mxCell id="7" value="API" style="edgeStyle=orthogonalEdgeStyle;rounded=0;orthogonalLoop=1;jettySize=auto;html=1;" edge="1" parent="1" source="3" target="4">
          <mxGeometry relative="1" as="geometry"/>
        </mxCell>
        <mxCell id="8" value="SQL" style="edgeStyle=orthogonalEdgeStyle;rounded=0;orthogonalLoop=1;jettySize=auto;html=1;" edge="1" parent="1" source="4" target="5">
          <mxGeometry relative="1" as="geometry"/>
        </mxCell>
      </root>
    </mxGraphModel>
  </diagram>
</mxfile>
